<svg width="24" height="24" viewBox="0 0 24 24" fill="none" xmlns="http://www.w3.org/2000/svg">
<path d="M19.1992 3.19922H4.79922C3.91522 3.19922 3.19922 3.91522 3.19922 4.79922V19.1992C3.19922 20.0832 3.91522 20.7992 4.79922 20.7992H19.1992C20.0832 20.7992 20.7992 20.0832 20.7992 19.1992V4.79922C20.7992 3.91522 20.0832 3.19922 19.1992 3.19922ZM8.76242 17.5992H6.40242V10.0056H8.76242V17.5992ZM7.55842 8.92002C6.79762 8.92002 6.18242 8.30322 6.18242 7.54402C6.18242 6.78482 6.79842 6.16882 7.55842 6.16882C8.31682 6.16882 8.93362 6.78562 8.93362 7.54402C8.93362 8.30322 8.31682 8.92002 7.55842 8.92002ZM17.6024 17.5992H15.244V13.9064C15.244 13.0256 15.228 11.8928 14.0176 11.8928C12.7896 11.8928 12.6008 12.852 12.6008 13.8424V17.5992H10.2424V10.0056H12.5064V11.0432H12.5384C12.8536 10.4464 13.6232 9.81682 14.7712 9.81682C17.1608 9.81682 17.6024 11.3896 17.6024 13.4344V17.5992Z" fill="#8F8F9A"/>
</svg>
