<svg width="170" height="170" viewBox="0 0 170 170" fill="none" xmlns="http://www.w3.org/2000/svg">
<g clip-path="url(#clip0_223_49358)">
<path d="M130 0H40C17.9086 0 0 17.9086 0 40V130C0 152.091 17.9086 170 40 170H130C152.091 170 170 152.091 170 130V40C170 17.9086 152.091 0 130 0Z" fill="#4A57FF"/>
<path d="M47.7993 54.3469L33.651 43.8485C31.1342 41.9734 30.6027 38.4338 32.4277 35.887C32.4377 35.8669 32.4477 35.8569 32.4577 35.8368C34.413 33.1094 36.3683 30.3821 38.2935 27.6246C39.9179 25.3083 40.5196 25.188 42.8459 26.9428C49.6743 32.0766 56.4828 37.2306 63.3112 42.3545C65.8782 44.2797 68.4752 46.1748 71.0622 48.08C77.7102 53.0033 77.1186 61.1754 69.7487 64.8453C61.2557 69.0768 52.7226 73.1979 44.2095 77.3893C40.4995 79.2142 36.0775 77.6399 34.3027 73.8998C33.0293 71.2025 31.6957 68.5353 30.3119 65.8881C29.4897 64.3038 29.5599 63.4415 31.2445 62.6494C35.7366 60.5537 40.1887 58.3578 44.6507 56.1718C45.5532 55.7307 46.3854 55.1591 47.7892 54.3469H47.7993Z" fill="#FF6D44"/>
<path d="M139.988 100.482C139.988 98.968 139.748 97.504 139.317 96.1403C139.286 96.0401 139.276 95.9599 139.236 95.8496C139.176 95.649 139.076 95.4886 139.006 95.2981C138.905 95.0374 138.795 94.7767 138.675 94.526C138.514 94.1851 138.374 93.8441 138.183 93.5333C135.737 89.1314 131.044 86.1533 125.65 86.1533C118.58 86.1533 112.725 91.2772 111.541 98.0054C111.331 98.607 111.11 99.2087 110.94 99.8805C108.333 110.309 96.0695 117.879 84.7288 117.107C77.6998 116.626 71.884 113.738 66.6499 109.186C60.6637 103.972 51.7796 104.774 46.385 110.79C42.2839 115.362 41.7224 124.848 47.6485 130.223C58.568 140.129 71.3125 145.173 86.0022 145.484C96.3703 145.554 105.936 142.746 114.79 137.522C127.043 130.293 134.945 114.45 138.615 106.579C139.487 104.734 139.988 102.668 139.988 100.492V100.482Z" fill="white"/>
<path d="M138.013 74.9126C138.846 75.6847 140.189 75.1031 140.189 73.97C140.189 57.1946 140.119 58.7689 140.179 38.5642C140.179 35.2653 139.176 32.3775 137.091 29.8807C133.331 25.3786 128.467 23.6539 122.802 24.9273C117.538 26.1105 113.708 29.3593 112.625 34.774C111.943 38.1932 112.043 41.803 112.033 45.3326C111.993 60.3031 112.073 58.8391 112.003 73.8096C112.003 74.9327 113.316 75.5142 114.149 74.7622C116.465 72.6665 120.576 69.899 126.101 69.899C131.626 69.899 135.697 72.7467 138.003 74.9126H138.013Z" fill="white"/>
</g>
<defs>
<clipPath id="clip0_223_49358">
<rect width="170" height="170" fill="white"/>
</clipPath>
</defs>
</svg>
